<svg width="28" height="28" viewBox="0 0 28 28" fill="none" xmlns="http://www.w3.org/2000/svg">
<path fill-rule="evenodd" clip-rule="evenodd" d="M21.8434 13.6564C21.5829 13.7165 21.5 14.2332 21.5 14.5C21.5 14.7666 21.5828 14.7144 21.843 14.7747C24.4983 15.3919 26.3517 17.7249 26.3517 20.4502C26.3517 23.6662 23.7351 26.2829 20.5192 26.2829C17.7748 26.2829 14.9185 23.8882 14.3565 21.2063C14.5811 21.2486 14.3083 20.9758 14.3565 21.2063C14.3219 21.1998 14.2863 21.1964 14.2501 21.1964C13.9785 21.1964 13.7438 21.3868 13.6882 21.6527C13.1261 24.3347 10.7252 26.2829 7.9808 26.2829C4.76495 26.2829 2.14828 23.6662 2.14828 20.4502C2.14828 17.7249 4.00168 15.3919 6.65696 14.7747C6.91724 14.7144 7.10106 14.4822 7.10106 14.2156C7.10106 14.1674 7.09503 14.1203 7.08362 14.0751C7.03194 13.8706 6.86979 13.7057 6.65659 13.6564C4.0015 13.039 2.14828 10.7061 2.14828 7.98096C2.14828 4.76494 4.76495 2.14828 7.9808 2.14828C10.7252 2.14828 13.1261 4.0965 13.6882 6.77841C13.7438 7.04432 13.9785 7.2348 14.2501 7.2348C14.5217 7.2348 14.7563 7.04431 14.8119 6.7784C15.3739 4.0965 17.7748 2 20.5192 2C23.7351 2 26.3517 4.76494 26.3517 7.98096C26.3517 10.7061 24.4985 13.039 21.8434 13.6564ZM27.5 7.98096C27.5 4.13143 24.3686 1 20.5192 1C17.8204 1 15.4016 2.57181 14.2501 4.91239C13.0984 2.57181 10.6794 1 7.9808 1C4.13142 1 1 4.13143 1 7.98096C1 10.6777 2.51822 13.0558 4.8414 14.2156C2.51822 15.3753 1 17.7534 1 20.4502C1 24.2997 4.13142 27.4312 7.9808 27.4312C10.6794 27.4312 13.0984 25.8593 14.2501 23.5188C15.4016 25.8593 17.8204 27.4312 20.5192 27.4312C24.3686 27.4312 27.5 24.2997 27.5 20.4502C27.5 17.7534 25.9818 15.3753 23.6586 14.2156C25.9818 13.0558 27.5 10.6777 27.5 7.98096Z" fill="#3DB370"/>
<path d="M21.8434 13.6564C21.5829 13.7165 21.5 14.2332 21.5 14.5M21.8434 13.6564L21.5 14.5M21.8434 13.6564L21.8995 13.8995M21.8434 13.6564C24.4985 13.039 26.3517 10.7061 26.3517 7.98096C26.3517 4.76494 23.7351 2 20.5192 2M21.5 14.5C21.5 14.7666 21.5828 14.7144 21.843 14.7747C24.4983 15.3919 26.3517 17.7249 26.3517 20.4502C26.3517 23.6662 23.7351 26.2829 20.5192 26.2829C17.7748 26.2829 14.9185 23.8882 14.3565 21.2063M21.5 14.5L21.8995 13.8995M21.5 14.5L24.5 15.5L26.5 18L27 21L25 25L22.5 26.5H19L16 25L14.8119 23.362L14.3565 21.2063M21.8995 13.8995L24 13.5L26 11.5L27 9V7.5L26.5 6.5L26.3517 5.19799L26 4.5L25 3.5L23 2L21.5 1.5L20.5192 2M20.5192 2C17.7748 2 15.3739 4.0965 14.8119 6.7784C14.7563 7.04431 14.5217 7.2348 14.2501 7.2348M20.5192 2L19 1.5L17.5 2.5L16 3.5L14.2501 7.2348M14.2501 7.2348C13.9785 7.2348 13.7438 7.04432 13.6882 6.77841C13.1261 4.0965 10.7252 2.14828 7.9808 2.14828C4.76495 2.14828 2.14828 4.76494 2.14828 7.98096C2.14828 10.7061 4.0015 13.039 6.65659 13.6564M14.2501 7.2348L12.5 3L9 1.5L5.5 2L3 4L1.67196 7.2348L2 10L3.5 12.5L6.65659 13.6564M6.65659 13.6564C6.86979 13.7057 7.03194 13.8706 7.08362 14.0751M6.65659 13.6564L7.08362 14.0751M14.3565 21.2063C14.3219 21.1998 14.2863 21.1964 14.2501 21.1964C13.9785 21.1964 13.7438 21.3868 13.6882 21.6527C13.1261 24.3347 10.7252 26.2829 7.9808 26.2829C4.76495 26.2829 2.14828 23.6662 2.14828 20.4502C2.14828 17.7249 4.00168 15.3919 6.65696 14.7747C6.91724 14.7144 7.10106 14.4822 7.10106 14.2156C7.10106 14.1674 7.09503 14.1203 7.08362 14.0751M14.3565 21.2063C14.3083 20.9758 14.5811 21.2486 14.3565 21.2063ZM14.3565 21.2063L13 24.5L10.3278 26.2829L7 26.5L4 25.5L2 22.5L1.5 18.5L4 15.5L7.08362 14.0751M27.5 7.98096C27.5 4.13143 24.3686 1 20.5192 1C17.8204 1 15.4016 2.57181 14.2501 4.91239C13.0984 2.57181 10.6794 1 7.9808 1C4.13142 1 1 4.13143 1 7.98096C1 10.6777 2.51822 13.0558 4.8414 14.2156C2.51822 15.3753 1 17.7534 1 20.4502C1 24.2997 4.13142 27.4312 7.9808 27.4312C10.6794 27.4312 13.0984 25.8593 14.2501 23.5188C15.4016 25.8593 17.8204 27.4312 20.5192 27.4312C24.3686 27.4312 27.5 24.2997 27.5 20.4502C27.5 17.7534 25.9818 15.3753 23.6586 14.2156C25.9818 13.0558 27.5 10.6777 27.5 7.98096Z" stroke="#3DB370" stroke-width="0.5"/>
</svg>
